
<svg width="49px" height="49px" viewBox="0 0 49 49" version="1.1" xmlns="http://www.w3.org/2000/svg" xmlns:xlink="http://www.w3.org/1999/xlink">
    <!-- Generator: Sketch 46.1 (44463) - http://www.bohemiancoding.com/sketch -->
    <desc>Created with Sketch.</desc>
    <defs></defs>
    <g id="index" stroke="none" stroke-width="1" fill="none" fill-rule="evenodd">
        <g id="Desktop-index" transform="translate(-773.000000, -600.000000)" fill-rule="nonzero" fill="#000000">
            <g id="Services" transform="translate(126.000000, 598.000000)">
                <g id="Tabs" transform="translate(11.000000, 0.000000)">
                    <g id="Speed-optimization" transform="translate(581.000000, 2.000000)">
                        <g id="speedometer" transform="translate(55.000000, 0.000000)">
                            <path d="M24.5,0.291803922 C11.1518235,0.291803922 0.290294118,11.1503137 0.290294118,24.5 C0.290294118,37.8496863 11.1518235,48.7081961 24.5,48.7081961 C37.8481765,48.7081961 48.7097059,37.8496863 48.7097059,24.5 C48.7097059,11.1503137 37.8481765,0.291803922 24.5,0.291803922 Z M24.5,47.0957255 C12.041098,47.0957255 1.90578431,36.958902 1.90578431,24.5 C1.90578431,12.041098 12.041098,1.90427451 24.5,1.90427451 C36.958902,1.90427451 47.0942157,12.041098 47.0942157,24.5 C47.0942157,36.958902 36.958902,47.0957255 24.5,47.0957255 Z" id="Shape"></path>
                            <path d="M25.254902,9.48198039 C25.7153922,9.48198039 26.0898235,9.10905882 26.0898235,8.64705882 L26.0898235,5.62745098 C26.0898235,5.16545098 25.7153922,4.79252941 25.254902,4.79252941 C24.7944118,4.79252941 24.4199804,5.16545098 24.4199804,5.62745098 L24.4199804,8.64705882 C24.4199804,9.10905882 24.7944118,9.48198039 25.254902,9.48198039 Z" id="Shape"></path>
                            <path d="M8.64705882,22.9101765 L5.62745098,22.9101765 C5.16696078,22.9101765 4.79252941,23.283098 4.79252941,23.745098 C4.79252941,24.207098 5.16696078,24.5800196 5.62745098,24.5800196 L8.64705882,24.5800196 C9.10754902,24.5800196 9.48198039,24.207098 9.48198039,23.745098 C9.48198039,23.283098 9.10754902,22.9101765 8.64705882,22.9101765 Z" id="Shape"></path>
                            <path d="M39.5180196,23.745098 C39.5180196,24.207098 39.892451,24.5800196 40.3529412,24.5800196 L43.372549,24.5800196 C43.8330392,24.5800196 44.2074706,24.207098 44.2074706,23.745098 C44.2074706,23.283098 43.8330392,22.9101765 43.372549,22.9101765 L40.3529412,22.9101765 C39.892451,22.9101765 39.5180196,23.283098 39.5180196,23.745098 Z" id="Shape"></path>
                            <path d="M13.2897059,15.6344314 C13.504098,15.6344314 13.7169804,15.552902 13.8800392,15.3898431 C14.2061569,15.0637255 14.2061569,14.5368039 13.8800392,14.2106863 L11.502098,11.8312353 C11.1759804,11.5036078 10.6490588,11.5036078 10.3229412,11.8312353 C9.99682353,12.1573529 9.99682353,12.6842745 10.3229412,13.0103922 L12.7008824,15.3883333 C12.8624314,15.552902 13.0768235,15.6344314 13.2897059,15.6344314 Z" id="Shape"></path>
                            <path d="M36.4138627,32.2135882 C36.0877451,31.8859608 35.5608235,31.8859608 35.2347059,32.2135882 C34.9085882,32.5397059 34.9085882,33.0666275 35.2347059,33.3927451 L37.4994118,35.657451 C37.6624706,35.8205098 37.8753529,35.9020392 38.0897451,35.9020392 C38.3041373,35.9020392 38.5170196,35.8205098 38.6800784,35.657451 C39.0061961,35.3313333 39.0061961,34.8044118 38.6800784,34.4782941 L36.4138627,32.2135882 Z" id="Shape"></path>
                            <path d="M37.9236667,12.257 C38.2497843,11.9308824 38.2497843,11.4039608 37.9236667,11.0778431 C37.597549,10.7502157 37.0706275,10.7502157 36.7445098,11.0778431 L34.3665686,13.4557843 C34.040451,13.781902 34.040451,14.3088235 34.3665686,14.6349412 C34.5296275,14.798 34.7425098,14.8795294 34.956902,14.8795294 C35.1712941,14.8795294 35.3841765,14.798 35.5472353,14.6349412 L37.9236667,12.257 Z" id="Shape"></path>
                            <path d="M13.3410392,32.9684902 L11.0763333,35.2331961 C10.7502157,35.5593137 10.7502157,36.0862353 11.0763333,36.4123529 C11.2393922,36.5754118 11.4522745,36.6569412 11.6666667,36.6569412 C11.8810588,36.6569412 12.0939412,36.5754118 12.257,36.4123529 L14.5217059,34.1476471 C14.8478235,33.8215294 14.8478235,33.2946078 14.5217059,32.9684902 C14.1955882,32.6423725 13.6671569,32.6423725 13.3410392,32.9684902 Z" id="Shape"></path>
                            <path d="M29.7843137,36.5784314 L19.2156863,36.5784314 C17.8734706,36.527098 16.8981373,37.5009216 16.8981373,38.8431373 L16.8981373,40.2880196 C16.8981373,41.6438235 17.9157451,42.7082353 19.2156863,42.6176471 L29.7843137,42.6176471 C31.0827451,42.7082353 32.1018627,41.6438235 32.1018627,40.2880196 L32.1018627,38.8431373 C32.1018627,37.5009216 31.1265294,36.527098 29.7843137,36.5784314 Z M30.4863725,40.2880196 C30.4863725,40.6760392 30.2659412,41.0942549 29.7843137,41.1455882 L19.2156863,41.1455882 C18.732549,41.0942549 18.5136275,40.6745294 18.5136275,41.1078431 L18.5136275,39.6629608 C18.5136275,38.3962353 18.7687843,38.1395686 19.2156863,38.0882353 L29.7843137,38.0882353 C30.2312157,38.1395686 30.4863725,38.3962353 30.4863725,38.8431373 L30.4863725,40.2880196 Z" id="Shape"></path>
                            <path d="M24.5,28.5266471 C25.5749804,28.5266471 26.586549,28.1084314 27.3459804,27.3474902 C28.7214118,25.9720588 28.8920196,23.8447451 27.8593137,22.282098 L31.8648235,18.2765882 C32.1788627,17.9610392 32.1788627,17.4507255 31.8648235,17.1351765 C31.5492745,16.8196275 31.0389608,16.8196275 30.7234118,17.1351765 L26.7133725,21.1452157 C25.1658235,20.1562941 22.9796275,20.3253922 21.6540196,21.6525098 C20.0838235,23.2227059 20.0838235,25.7757843 21.6540196,27.3459804 C22.413451,28.1084314 23.4250196,28.5266471 24.5,28.5266471 Z M23.0777647,23.0777647 C23.4567255,22.6972941 23.9625098,22.4874314 24.5,22.4874314 C25.0374902,22.4874314 25.5432745,22.6972941 25.9237451,23.0777647 C26.7088431,23.8628627 26.7088431,25.1386471 25.9237451,25.9237451 C25.1643137,26.6846863 23.8387059,26.6846863 23.0777647,25.9237451 C22.2926667,25.1386471 22.2926667,23.8613529 23.0777647,23.0777647 Z" id="Shape"></path>
                        </g>
                    </g>
                </g>
            </g>
        </g>
    </g>
</svg>