
<svg width="64px" height="49px" viewBox="0 0 64 49" version="1.1" xmlns="http://www.w3.org/2000/svg" xmlns:xlink="http://www.w3.org/1999/xlink">
    <!-- Generator: Sketch 46.1 (44463) - http://www.bohemiancoding.com/sketch -->
    <desc>Created with Sketch.</desc>
    <defs>
        <polygon id="path-1" points="0 49 64 49 64 0 0 0"></polygon>
    </defs>
    <g id="index" stroke="none" stroke-width="1" fill="none" fill-rule="evenodd">
        <g id="Desktop-index" transform="translate(-180.000000, -600.000000)">
            <g id="Services" transform="translate(126.000000, 598.000000)">
                <g id="Tabs" transform="translate(11.000000, 0.000000)">
                    <g id="Webdevelopment" transform="translate(0.000000, 2.000000)">
                        <g id="laptop" transform="translate(43.000000, 0.000000)">
                            <path d="M5.33333333,39.8125 C4.9127619,39.8125 4.57142857,39.4679687 4.57142857,39.046875 L4.57142857,3.0625 C4.57142857,1.28778125 5.85295238,0 7.61904762,0 L56.3809524,0 C58.0906667,0 59.4285714,1.40415625 59.4285714,3.19878125 L59.4285714,39.046875 C59.4285714,39.4679687 59.0857143,39.8125 58.6666667,39.8125 C58.247619,39.8125 57.9047619,39.4679687 57.9047619,39.046875 L57.9047619,3.19878125 C57.9047619,2.247875 57.2495238,1.53125 56.3809524,1.53125 L7.61904762,1.53125 C6.70780952,1.53125 6.0952381,2.1468125 6.0952381,3.0625 L6.0952381,39.046875 C6.0952381,39.4679687 5.75390476,39.8125 5.33333333,39.8125 Z" id="Fill-1" fill="#000"></path>
                            <mask id="mask-2" fill="white">
                                <use xlink:href="#path-1"></use>
                            </mask>
                            <g id="Clip-4"></g>
                            <path d="M10.6666667,38.28125 L53.3333333,38.28125 L53.3333333,6.125 L10.6666667,6.125 L10.6666667,38.28125 Z M9.9047619,4.59375 C9.48419048,4.59375 9.14285714,4.93675 9.14285714,5.359375 L9.14285714,39.046875 C9.14285714,39.4679687 9.48419048,39.8125 9.9047619,39.8125 L54.0952381,39.8125 C54.5142857,39.8125 54.8571429,39.4679687 54.8571429,39.046875 L54.8571429,5.359375 C54.8571429,4.93675 54.5142857,4.59375 54.0952381,4.59375 L9.9047619,4.59375 Z" id="Fill-3" fill="#000" mask="url(#mask-2)"></path>
                            <path d="M62.4761905,45.171875 C62.4761905,46.0737812 61.088,47.46875 60.1904762,47.46875 L3.80952381,47.46875 C2.848,47.46875 1.52380952,46.29275 1.52380952,45.4398438 L1.52380952,44.40625 L62.4761905,44.40625 L62.4761905,45.171875 Z M63.2380952,42.875 L0.761904762,42.875 C0.341333333,42.875 0,43.2195313 0,43.640625 L0,45.4398438 C0,47.2742813 2.14552381,49 3.80952381,49 L60.1904762,49 C61.9352381,49 64,46.9251563 64,45.171875 L64,43.640625 C64,43.2195313 63.6571429,42.875 63.2380952,42.875 L63.2380952,42.875 Z" id="Fill-5" fill="#000" mask="url(#mask-2)"></path>
                        </g>
                    </g>
                </g>
            </g>
        </g>
    </g>
</svg>