<?xml version="1.0" encoding="UTF-8"?>
<svg width="24px" height="42px" viewBox="0 0 24 42" version="1.1" xmlns="http://www.w3.org/2000/svg" xmlns:xlink="http://www.w3.org/1999/xlink">
    <!-- Generator: Sketch 46.1 (44463) - http://www.bohemiancoding.com/sketch -->
    <title>noun_486802_cc</title>
    <desc>Created with Sketch.</desc>
    <defs></defs>
    <g id="index" stroke="none" stroke-width="1" fill="none" fill-rule="evenodd">
        <g id="Desktop-index" transform="translate(-688.000000, -705.000000)" fill-rule="nonzero" fill="#6B818C">
            <g id="noun_486802_cc" transform="translate(688.000000, 705.000000)">
                <g id="Group">
                    <g id="Shape">
                        <path d="M2,12.0074017 L2,12.0074017 L2,29.9925983 C2,35.5218355 6.4762336,40 12,40 C17.5234877,40 22,35.5203508 22,29.9925983 L22,12.0074017 C22,6.4781645 17.5237664,2 12,2 C6.4765123,2 2,6.4796492 2,12.0074017 L2,12.0074017 Z M0,12.0074017 C0,5.3758969 5.3711258,0 12,0 C18.627417,0 24,5.3726755 24,12.0074017 L24,29.9925983 C24,36.6241031 18.6288742,42 12,42 C5.372583,42 0,36.6273245 0,29.9925983 L0,12.0074017 L0,12.0074017 Z"></path>
                        <path d="M11,7 L11,11 C11,11.5522847 11.4477153,12 12,12 C12.5522847,12 13,11.5522847 13,11 L13,7 C13,6.4477153 12.5522847,6 12,6 C11.4477153,6 11,6.4477153 11,7 L11,7 Z"></path>
                    </g>
                </g>
            </g>
        </g>
    </g>
</svg>