
<svg width="29px" height="49px" viewBox="0 0 29 49" version="1.1" xmlns="http://www.w3.org/2000/svg" xmlns:xlink="http://www.w3.org/1999/xlink">
    <!-- Generator: Sketch 46.1 (44463) - http://www.bohemiancoding.com/sketch -->
    <desc>Created with Sketch.</desc>
    <defs></defs>
    <g id="index" stroke="none" stroke-width="1" fill="none" fill-rule="evenodd">
        <g id="Desktop-index" transform="translate(-393.000000, -600.000000)" fill-rule="nonzero" fill="#000000">
            <g id="Services" transform="translate(126.000000, 598.000000)">
                <g id="Tabs" transform="translate(11.000000, 0.000000)">
                    <g id="Mobile" transform="translate(187.000000, 2.000000)">
                        <g id="phone" transform="translate(69.000000, 0.000000)">
                            <path d="M2.28947368,49 L26.7105263,49 C27.9727895,49 29,47.9694687 29,46.703125 L29,2.296875 C29,1.03053125 27.9727895,0 26.7105263,0 L2.28947368,0 C1.02721053,0 0,1.03053125 0,2.296875 L0,46.703125 C0,47.9694687 1.02721053,49 2.28947368,49 Z M1.52631579,2.296875 C1.52631579,1.87425 1.86821053,1.53125 2.28947368,1.53125 L26.7105263,1.53125 C27.1317895,1.53125 27.4736842,1.87425 27.4736842,2.296875 L27.4736842,46.703125 C27.4736842,47.12575 27.1317895,47.46875 26.7105263,47.46875 L2.28947368,47.46875 C1.86821053,47.46875 1.52631579,47.12575 1.52631579,46.703125 L1.52631579,2.296875 Z" id="Shape"></path>
                            <path d="M3.81578947,41.34375 L25.1842105,41.34375 C25.6054737,41.34375 25.9473684,41.00075 25.9473684,40.578125 L25.9473684,8.421875 C25.9473684,7.99925 25.6054737,7.65625 25.1842105,7.65625 L3.81578947,7.65625 C3.39452632,7.65625 3.05263158,7.99925 3.05263158,8.421875 L3.05263158,40.578125 C3.05263158,41.00075 3.39452632,41.34375 3.81578947,41.34375 Z M4.57894737,9.1875 L24.4210526,9.1875 L24.4210526,39.8125 L4.57894737,39.8125 L4.57894737,9.1875 Z" id="Shape"></path>
                            <ellipse id="Oval" cx="14.5263158" cy="44.53125" rx="1.52631579" ry="1.53125"></ellipse>
                            <path d="M11.4473684,6.125 L17.5526316,6.125 C17.9738947,6.125 18.3157895,5.782 18.3157895,5.359375 C18.3157895,4.93675 17.9738947,4.59375 17.5526316,4.59375 L11.4473684,4.59375 C11.0261053,4.59375 10.6842105,4.93675 10.6842105,5.359375 C10.6842105,5.782 11.0261053,6.125 11.4473684,6.125 Z" id="Shape"></path>
                        </g>
                    </g>
                </g>
            </g>
        </g>
    </g>
</svg>