
<svg width="49px" height="50px" viewBox="0 0 49 50" version="1.1" xmlns="http://www.w3.org/2000/svg" xmlns:xlink="http://www.w3.org/1999/xlink">
    <!-- Generator: Sketch 46.1 (44463) - http://www.bohemiancoding.com/sketch -->
    <desc>Created with Sketch.</desc>
    <defs></defs>
    <g id="index" stroke="none" stroke-width="1" fill="none" fill-rule="evenodd">
        <g id="Desktop-index" transform="translate(-967.000000, -600.000000)" fill-rule="nonzero" fill="#000000">
            <g id="Services" transform="translate(126.000000, 598.000000)">
                <g id="Tabs" transform="translate(11.000000, 0.000000)">
                    <g id="Ongoing-support" transform="translate(785.000000, 1.000000)">
                        <g id="tools-2" transform="translate(45.000000, 1.000000)">
                            <path d="M43.4170625,2.63337104 C43.5931563,2.45774887 43.6727813,2.20729638 43.6299063,1.96295249 C43.5870313,1.7186086 43.4277813,1.50938914 43.2011563,1.40401584 C39.6930625,-0.24530543 35.5295938,0.478563348 32.7917188,3.22285068 C30.1916563,5.83274887 29.283625,9.93161765 30.496375,13.3585407 L12.8272813,30.9803167 C11.8671875,30.6382353 10.84125,30.4671946 9.77090625,30.4671946 C7.14634375,30.4671946 4.60140625,31.5087104 2.7899375,33.3260181 C0.06125,36.0626697 -0.7074375,40.1065611 0.82840625,43.6296946 C0.92946875,43.8618213 1.13925,44.0298077 1.38884375,44.0756222 C1.63996875,44.1229638 1.8956875,44.043552 2.0733125,43.8633484 L7.41890625,38.5045814 C7.77109375,38.1502828 8.3391875,38.1029412 8.6331875,38.4007353 L10.9407813,40.8090498 C11.276125,41.1465498 11.2608125,41.6673077 10.9070938,42.0231335 L5.58140625,47.3681561 C5.4053125,47.5437783 5.32721875,47.7942308 5.37009375,48.0385747 C5.41296875,48.2829186 5.57221875,48.4906109 5.7973125,48.5959842 C7.06671875,49.1930995 8.40196875,49.493948 9.76478125,49.493948 C12.1719063,49.493948 14.4580625,48.5287896 16.20675,46.7756222 C18.8068125,44.1672511 19.7148438,40.0683824 18.5005625,36.6414593 L36.1696563,19.0181561 C37.1312813,19.3602376 38.1572188,19.5312783 39.2275625,19.5312783 C41.852125,19.5312783 44.3970625,18.4897624 46.2085313,16.6724548 C48.9372188,13.9358032 49.7059063,9.89191176 48.1700625,6.36877828 C48.069,6.13665158 47.8592188,5.96866516 47.609625,5.92285068 C47.3630938,5.8800905 47.1043125,5.95492081 46.9251563,6.13512443 L41.5795625,11.4938914 C41.2503438,11.8237557 40.6914375,11.8207014 40.3530313,11.4786199 L38.0576875,9.18942308 C37.711625,8.84276018 37.7131563,8.32200226 38.0561563,7.97686652 L43.4170625,2.63337104 Z M36.9735625,10.2691176 L39.2689063,12.5583145 C40.186125,13.4776584 41.7571875,13.4822398 42.6652188,12.5720588 L47.1517813,8.07613122 C47.8699375,10.7348982 47.1272813,13.5876131 45.1244063,15.5988688 C43.59775,17.1305995 41.4509375,18.0071833 39.2290938,18.0071833 C38.18325,18.0071833 37.1925313,17.8117081 36.2845,17.4268665 C35.996625,17.3031674 35.6643438,17.370362 35.4438438,17.5887443 L17.0688438,35.9145362 C16.8483438,36.1344457 16.7840313,36.46431 16.905,36.7498869 C18.1345938,39.6667421 17.3858125,43.4311652 15.1241563,45.700509 C13.101375,47.7285633 10.1567813,48.450905 7.490875,47.6216629 L11.9942813,43.1013009 C12.9451875,42.1468326 12.9605,40.6670249 12.0386875,39.7446267 L9.732625,37.3363122 C8.84296875,36.4429299 7.2611875,36.4979072 6.3363125,37.4309955 L1.84975,41.9269231 C1.13159375,39.2681561 1.87425,36.4154412 3.877125,34.4041855 C5.40378125,32.8724548 7.55059375,31.995871 9.7724375,31.995871 C10.8182813,31.995871 11.809,32.1913462 12.7170313,32.5761878 C13.003375,32.701414 13.3371875,32.6326923 13.5576875,32.41431 L31.9326875,14.0885181 C32.1531875,13.8686086 32.2175,13.5387443 32.0965313,13.2531674 C30.8669375,10.3363122 31.6157188,6.57036199 33.877375,4.3010181 C35.898625,2.2729638 38.8416875,1.55520362 41.5060625,2.37986425 L36.9735625,6.90175339 C36.0303125,7.84400452 36.0303125,9.32228507 36.9735625,10.2691176 Z" id="Shape"></path>
                            <path d="M44.7278125,47.3681561 C44.3894063,47.7071833 43.8029375,47.7071833 43.4614688,47.3651018 L28.1030313,32.0936086 C27.8044375,31.7988688 27.3190313,31.7973416 27.0204375,32.0966629 C26.7218438,32.394457 26.723375,32.8785633 27.0219688,33.1763575 L42.378875,48.4447964 C42.83825,48.9044683 43.4476875,49.1579751 44.0969375,49.1579751 L44.0969375,49.1579751 C44.7461875,49.1579751 45.355625,48.9044683 45.8241875,48.4341063 L48.0123438,46.1540724 C48.9540625,45.2102941 48.9540625,43.7304864 48.0108125,42.785181 L32.6983125,27.5136878 C32.3997188,27.2158937 31.9143125,27.2158937 31.6157188,27.5136878 C31.317125,27.8114819 31.317125,28.2955882 31.6157188,28.5933824 L46.9266875,43.8633484 C47.2773438,44.2145928 47.2773438,44.7246606 46.9159688,45.0881222 L44.7278125,47.3681561 Z" id="Shape"></path>
                            <path d="M8.9639375,5.37002262 L4.3701875,0.788574661 C4.07159375,0.490780543 3.5861875,0.490780543 3.28759375,0.788574661 L0.22509375,3.8428733 C-0.0735,4.14066742 -0.0735,4.62477376 0.22509375,4.92256787 L4.81884375,9.50401584 C4.967375,9.65367647 5.163375,9.72850679 5.359375,9.72850679 C5.555375,9.72850679 5.751375,9.65367647 5.9014375,9.50554299 L6.890625,8.51747738 L18.5985625,20.1940611 C18.748625,20.3437217 18.944625,20.418552 19.140625,20.418552 C19.336625,20.418552 19.532625,20.3437217 19.6826875,20.1955882 C19.9812813,19.8977941 19.9812813,19.4136878 19.6826875,19.1158937 L7.97321875,7.43778281 L8.96240625,6.45124434 C9.26253125,6.15192308 9.26253125,5.66934389 8.9639375,5.37002262 Z M5.359375,7.88523756 L1.84821875,4.38348416 L3.828125,2.40888009 L7.33928125,5.91063348 L5.359375,7.88523756 Z" id="Shape"></path>
                        </g>
                    </g>
                </g>
            </g>
        </g>
    </g>
</svg>