
<svg width="42px" height="50px" viewBox="0 0 42 50" version="1.1" xmlns="http://www.w3.org/2000/svg" xmlns:xlink="http://www.w3.org/1999/xlink">
    <!-- Generator: Sketch 46.1 (44463) - http://www.bohemiancoding.com/sketch -->
    <desc>Created with Sketch.</desc>
    <defs></defs>
    <g id="index" stroke="none" stroke-width="1" fill="none" fill-rule="evenodd" stroke-linecap="round" stroke-linejoin="round">
        <g id="Desktop-index" transform="translate(-581.000000, -600.000000)" stroke="#000000" stroke-width="1.5">
            <g id="Services" transform="translate(126.000000, 598.000000)">
                <g id="Tabs" transform="translate(11.000000, 0.000000)">
                    <g id="UX/UI-development" transform="translate(384.000000, 0.000000)">
                        <g id="designer-cup" transform="translate(61.000000, 3.000000)">
                            <path d="M31.0661269,25.04 L33.2793522,25.04 C36.9444534,25.04 39.9190283,27.83552 39.9190283,31.28 C39.9190283,34.72448 36.9444534,37.52 33.2793522,37.52 L31.0661269,37.52" id="Shape"></path>
                            <path d="M31.0661269,43.76 C31.0661269,46.05632 29.0830769,47.92 26.6396761,47.92 L6.72064777,47.92 C4.27724696,47.92 2.29419703,46.05632 2.29419703,43.76 L2.29419703,20.88 L31.0661269,20.88 L31.0661269,43.76 Z M30.802753,0.21312 C33.0890148,3.48704 29.7049933,5.28 28.9148718,7.03968 C28.0804858,8.90128 28.8905263,10.68384 30.8735762,11.468 C37.2919298,14.00976 39.2041565,2.12256 30.802753,0.21312 Z M24.4264507,20.88 L30.2007557,11.12896 L24.4264507,20.88 Z M32.4848043,11.84448 L28.8529015,20.88 L32.4848043,11.84448 Z" id="Shape"></path>
                            <path d="M11.1470985,20.88 L4.5074224,20.88 L1.18758435,14.64 L0.0809716599,8.4 L5.61403509,11.52 L11.1470985,20.88 Z M1.18758435,14.64 L5.61403509,11.52 L1.18758435,14.64 Z" id="Shape"></path>
                            <path d="M13.3603239,0.08 L22.2132254,0.08 L22.2132254,20.88 L13.3603239,20.88 L13.3603239,0.08 Z M22.2132254,4.24 L17.7867746,4.24 L22.2132254,4.24 Z M22.2132254,8.4 L20,8.4 L22.2132254,8.4 Z M22.2132254,12.56 L17.7867746,12.56 L22.2132254,12.56 Z M22.2132254,16.72 L20,16.72 L22.2132254,16.72 Z" id="Shape"></path>
                        </g>
                    </g>
                </g>
            </g>
        </g>
    </g>
</svg>