<?xml version="1.0" encoding="utf-8"?>
<!-- Generator: Adobe Illustrator 16.0.0, SVG Export Plug-In . SVG Version: 6.00 Build 0)  -->
<!DOCTYPE svg PUBLIC "-//W3C//DTD SVG 1.1//EN" "http://www.w3.org/Graphics/SVG/1.1/DTD/svg11.dtd">
<svg version="1.1" id="Layer_1" xmlns="http://www.w3.org/2000/svg" xmlns:xlink="http://www.w3.org/1999/xlink" x="0px" y="0px"
	 width="389.799px" height="201.305px" viewBox="0 0 389.799 201.305" enable-background="new 0 0 389.799 201.305"
	 xml:space="preserve">
<g>
	<defs>
		<rect id="SVGID_1_" width="389.799" height="201.305"/>
	</defs>
	<clipPath id="SVGID_2_">
		<use xlink:href="#SVGID_1_"  overflow="visible"/>
	</clipPath>
	<path clip-path="url(#SVGID_2_)" fill="#00618A" d="M0,183.354h12.842v-50.711l19.881,44.208c2.345,5.352,5.556,7.244,11.853,7.244
		c6.298,0,9.385-1.893,11.732-7.244l19.88-44.208v50.711H89.03v-50.628c0-4.938-1.976-7.327-6.05-8.561
		c-9.755-3.046-16.3-0.412-19.264,6.174l-19.51,43.63l-18.892-43.63c-2.84-6.586-9.508-9.22-19.263-6.174
		C1.976,125.399,0,127.788,0,132.726V183.354z"/>
	<path clip-path="url(#SVGID_2_)" fill="#00618A" d="M99.708,142.079h12.838v27.938c-0.12,1.518,0.487,5.08,7.522,5.191
		c3.589,0.056,27.7,0,27.925,0v-33.266h12.868c0.059,0-0.013,45.364-0.012,45.558c0.071,11.188-13.882,13.617-20.313,13.806H99.987
		v-8.639c0.071,0,40.519,0.008,40.621-0.002c8.265-0.873,7.289-4.981,7.288-6.364v-3.368h-27.295
		c-12.699-0.117-20.786-5.659-20.886-12.035C99.706,170.306,99.989,142.357,99.708,142.079"/>
	<path clip-path="url(#SVGID_2_)" fill="#E48E00" d="M170.758,183.354h36.92c4.322,0,8.521-0.905,11.854-2.47
		c5.557-2.551,8.273-6.008,8.273-10.537v-9.384c0-3.705-3.087-7.163-9.138-9.467c-3.211-1.236-7.162-1.895-10.99-1.895h-15.559
		c-5.185,0-7.655-1.563-8.272-5.021c-0.124-0.412-0.124-0.742-0.124-1.153v-5.844c0-0.33,0-0.66,0.124-1.071
		c0.617-2.634,1.976-3.376,6.544-3.787c0.371,0,0.864-0.083,1.235-0.083H228.3v-8.56h-36.057c-5.186,0-7.903,0.329-10.372,1.068
		c-7.656,2.389-10.99,6.176-10.99,12.762v7.49c0,5.764,6.545,10.702,17.534,11.854c1.236,0.082,2.47,0.164,3.704,0.164h13.336
		c0.494,0,0.988,0,1.358,0.083c4.075,0.33,5.804,1.069,7.039,2.552c0.74,0.74,0.987,1.482,0.987,2.305v7.491
		c0,0.906-0.617,2.06-1.852,3.046c-1.111,0.988-2.964,1.647-5.434,1.812c-0.494,0-0.864,0.082-1.358,0.082h-35.438V183.354z"/>
	<path clip-path="url(#SVGID_2_)" fill="#E48E00" d="M307.918,168.455c0,8.808,6.544,13.748,19.757,14.735
		c1.233,0.082,2.47,0.164,3.704,0.164h33.464v-8.561h-33.711c-7.532,0-10.372-1.895-10.372-6.421v-44.289h-12.842V168.455z"/>
	<path clip-path="url(#SVGID_2_)" fill="#E48E00" d="M236.002,168.903v-30.521c0-7.754,5.444-12.457,16.209-13.942
		c1.113-0.164,2.352-0.247,3.465-0.247h24.376c1.237,0,2.352,0.083,3.589,0.247c10.765,1.485,16.209,6.188,16.209,13.942v30.521
		c0,6.291-2.312,9.658-7.641,11.853l12.649,11.418h-14.911l-10.233-9.238l-10.303,0.653h-13.735c-2.352,0-4.825-0.331-7.548-1.073
		C239.962,180.289,236.002,175.999,236.002,168.903 M249.862,168.162c0,0.412,0.123,0.824,0.247,1.319
		c0.742,3.547,4.083,5.527,9.156,5.527h11.667l-10.717-9.675h14.911l9.347,8.438c1.722-0.918,2.856-2.322,3.252-4.125
		c0.123-0.412,0.123-0.825,0.123-1.237v-29.284c0-0.33,0-0.743-0.123-1.156c-0.743-3.299-4.084-5.196-9.033-5.196h-19.427
		c-5.691,0-9.403,2.476-9.403,6.353V168.162z"/>
	<path clip-path="url(#SVGID_2_)" fill="#00618A" d="M376.141,109.88c-7.894-0.214-13.924,0.521-19.079,2.694
		c-1.465,0.618-3.801,0.634-4.04,2.47c0.805,0.844,0.93,2.104,1.57,3.143c1.23,1.991,3.309,4.66,5.163,6.061
		c2.025,1.529,4.114,3.165,6.286,4.489c3.862,2.355,8.176,3.701,11.896,6.061c2.192,1.392,4.37,3.144,6.509,4.713
		c1.058,0.776,1.769,1.983,3.143,2.47v-0.225c-0.723-0.919-0.908-2.183-1.571-3.143c-0.972-0.973-1.945-1.945-2.918-2.918
		c-2.853-3.787-6.475-7.113-10.325-9.876c-3.069-2.204-9.941-5.182-11.223-8.754c-0.075-0.075-0.149-0.15-0.225-0.226
		c2.177-0.245,4.726-1.033,6.734-1.57c3.375-0.905,6.391-0.672,9.876-1.571c1.571-0.449,3.143-0.899,4.714-1.348v-0.897
		c-1.762-1.808-3.018-4.2-4.938-5.836c-5.026-4.28-10.513-8.556-16.161-12.122c-3.133-1.977-7.005-3.262-10.325-4.938
		c-1.117-0.564-3.079-0.857-3.817-1.796c-1.743-2.224-2.693-5.042-4.038-7.632c-2.818-5.426-5.585-11.351-8.081-17.059
		c-1.703-3.893-2.815-7.732-4.938-11.224c-10.192-16.757-21.163-26.871-38.158-36.813c-3.616-2.114-7.97-2.949-12.57-4.04
		c-2.469-0.149-4.938-0.299-7.407-0.449c-1.507-0.63-3.075-2.474-4.489-3.367c-5.63-3.557-20.071-11.293-24.241-1.122
		c-2.633,6.42,3.936,12.684,6.284,15.937c1.649,2.283,3.76,4.841,4.938,7.408c0.774,1.686,0.908,3.378,1.571,5.163
		c1.633,4.396,3.052,9.179,5.162,13.243c1.067,2.056,2.243,4.222,3.592,6.06c0.827,1.128,2.244,1.625,2.469,3.368
		c-1.387,1.939-1.465,4.95-2.244,7.407c-3.508,11.061-2.186,24.81,2.918,32.997c1.565,2.513,5.254,7.903,10.325,5.835
		c4.436-1.807,3.444-7.406,4.714-12.346c0.287-1.12,0.11-1.943,0.673-2.693v0.224c1.347,2.694,2.694,5.387,4.041,8.08
		c2.99,4.816,8.297,9.849,12.794,13.245c2.332,1.761,4.168,4.806,7.183,5.836v-0.226h-0.225c-0.584-0.911-1.498-1.288-2.244-2.02
		c-1.757-1.722-3.71-3.863-5.163-5.836c-4.09-5.553-7.705-11.631-10.998-17.958c-1.573-3.02-2.939-6.353-4.266-9.427
		c-0.511-1.186-0.505-2.978-1.57-3.592c-1.452,2.253-3.591,4.074-4.714,6.734c-1.796,4.252-2.028,9.438-2.693,14.815
		c-0.394,0.141-0.219,0.044-0.449,0.224c-3.126-0.754-4.226-3.972-5.387-6.733c-2.938-6.982-3.484-18.226-0.898-26.263
		c0.669-2.079,3.692-8.629,2.469-10.55c-0.584-1.917-2.512-3.025-3.591-4.49c-1.335-1.81-2.668-4.194-3.592-6.285
		c-2.405-5.444-3.528-11.556-6.061-17.059c-1.21-2.63-3.257-5.293-4.938-7.631c-1.861-2.591-3.945-4.499-5.388-7.633
		c-0.513-1.113-1.21-2.896-0.448-4.04c0.241-0.773,0.583-1.095,1.347-1.347c1.302-1.004,4.928,0.334,6.284,0.898
		c3.6,1.495,6.604,2.918,9.652,4.938c1.465,0.971,2.944,2.848,4.714,3.367h2.02c3.16,0.727,6.7,0.226,9.652,1.122
		c5.218,1.586,9.894,4.053,14.141,6.735c12.938,8.169,23.516,19.798,30.752,33.67c1.164,2.233,1.668,4.365,2.693,6.734
		c2.068,4.777,4.675,9.693,6.732,14.365c2.055,4.661,4.057,9.365,6.959,13.244c1.527,2.039,7.422,3.133,10.102,4.265
		c1.878,0.794,4.955,1.621,6.733,2.693c3.398,2.05,6.69,4.49,9.877,6.735C371.001,105.391,375.896,107.853,376.141,109.88"/>
	<path clip-path="url(#SVGID_2_)" fill="#00618A" d="M275.807,24.359c-1.646-0.03-2.81,0.18-4.041,0.448v0.225h0.225
		c0.785,1.613,2.172,2.651,3.143,4.041c0.748,1.571,1.496,3.143,2.245,4.713c0.074-0.075,0.149-0.15,0.224-0.224
		c1.391-0.979,2.027-2.547,2.021-4.938c-0.558-0.586-0.64-1.322-1.122-2.021C277.857,25.671,276.615,25.142,275.807,24.359"/>
	<path clip-path="url(#SVGID_2_)" fill="#E48E00" d="M370.871,174.549c0,5.654,4.467,9.464,9.464,9.464s9.464-3.81,9.464-9.464
		c0-5.653-4.467-9.463-9.464-9.463S370.871,168.896,370.871,174.549 M387.679,174.549c0,4.29-3.28,7.496-7.344,7.496
		c-4.113,0-7.345-3.206-7.345-7.496s3.231-7.496,7.345-7.496C384.398,167.053,387.679,170.259,387.679,174.549 M382.885,179.95
		h2.119l-3.104-4.743c1.665-0.178,2.927-0.985,2.927-2.953c0-2.196-1.388-3.104-4.062-3.104h-4.215v10.801h1.817v-4.669h1.69
		L382.885,179.95z M378.367,173.767v-3.104h2.094c1.086,0,2.397,0.201,2.397,1.464c0,1.513-1.186,1.64-2.549,1.64H378.367z"/>
</g>
</svg>
