<?xml version="1.0" encoding="utf-8"?>
<!-- Generator: Adobe Illustrator 16.0.0, SVG Export Plug-In . SVG Version: 6.00 Build 0)  -->
<!DOCTYPE svg PUBLIC "-//W3C//DTD SVG 1.1//EN" "http://www.w3.org/Graphics/SVG/1.1/DTD/svg11.dtd">
<svg version="1.1" id="Layer_1" xmlns="http://www.w3.org/2000/svg" xmlns:xlink="http://www.w3.org/1999/xlink" x="0px" y="0px"
	 width="457.361px" height="195px" viewBox="0 0 457.361 195" enable-background="new 0 0 457.361 195" xml:space="preserve">
<g>
	<defs>
		<rect id="SVGID_1_" y="49.196" width="457.361" height="145.804"/>
	</defs>
	<clipPath id="SVGID_2_">
		<use xlink:href="#SVGID_1_"  overflow="visible"/>
	</clipPath>
	<path clip-path="url(#SVGID_2_)" fill="#636466" d="M250.319,94.354c0,3.619-2.973,6.849-6.85,6.849
		c-2.973,0-5.557,0.776-7.754,2.456c-2.455,1.552-4.395,3.748-5.944,6.203c-3.102,4.136-4.651,9.046-5.298,10.854v24.554
		c0,3.748-3.23,6.85-7.107,6.85c-3.748,0-6.849-3.102-6.849-6.85V94.354c0-3.748,3.101-6.72,6.849-6.72
		c3.877,0,7.107,2.973,7.107,6.72v0.905c0.775-0.905,1.809-1.938,2.714-2.585c4.266-2.842,9.821-5.169,16.282-5.04
		C247.347,87.633,250.319,90.606,250.319,94.354z"/>
	<path clip-path="url(#SVGID_2_)" fill="#636466" d="M246.53,119.813c0.13-17.575,13.827-32.307,31.53-32.307
		c16.8,0,30.11,12.535,31.146,29.98v0.646c0,0.259,0,0.904-0.129,1.163c-0.39,3.102-3.103,5.17-6.722,5.17h-41.094
		c0.646,2.973,2.067,6.332,4.395,8.528c2.714,3.103,7.883,5.427,12.404,5.814c4.652,0.387,10.209-0.775,13.44-3.23
		c2.713-2.844,8.012-2.455,9.691-0.389c1.681,1.812,2.973,5.688,0,8.4c-6.333,5.813-13.957,8.528-23.133,8.528
		C260.357,151.991,246.66,137.389,246.53,119.813z M260.616,113.481h36.57c-1.292-5.169-7.883-12.793-19.126-13.698
		C267.078,100.299,261.649,108.184,260.616,113.481"/>
	<path clip-path="url(#SVGID_2_)" fill="#636466" d="M375.04,145.144c0,3.748-3.102,6.979-6.979,6.979
		c-3.489,0-6.202-2.454-6.85-5.557c-4.91,3.359-11.112,5.557-17.575,5.557c-17.444,0-31.401-14.731-31.401-32.178
		c0-17.705,13.957-32.437,31.401-32.437c6.333,0,12.535,2.067,17.316,5.427V68.641c0-3.748,3.103-6.979,7.107-6.979
		c3.877,0,6.979,3.231,6.979,6.979v51.174v0.13L375.04,145.144L375.04,145.144z M343.639,101.593c-4.652,0-8.918,1.938-12.146,5.298
		c-3.231,3.231-5.17,7.882-5.17,13.052c0,4.91,1.938,9.562,5.17,12.793c3.229,3.361,7.494,5.299,12.146,5.299
		c4.78,0,8.917-1.938,12.146-5.299c3.23-3.229,5.169-7.883,5.169-12.793c0-5.17-1.938-9.821-5.169-13.052
		C352.556,103.532,348.419,101.593,343.639,101.593"/>
	<path clip-path="url(#SVGID_2_)" fill="#636466" d="M399.631,71.354c0,3.877-2.973,7.107-6.979,7.107
		c-3.877,0-6.978-3.23-6.978-7.107V68.64c0-3.877,3.101-6.979,6.978-6.979c4.007,0,6.979,3.102,6.979,6.979V71.354z M399.631,94.743
		v50.399c0,3.877-2.973,6.979-6.979,6.979c-3.877,0-6.978-3.102-6.978-6.979V94.743c0-4.135,3.101-7.108,6.978-7.108
		C396.659,87.635,399.631,90.608,399.631,94.743"/>
	<path clip-path="url(#SVGID_2_)" fill="#636466" d="M408.511,133.634c2.326-3.101,6.85-3.488,9.692-1.033
		c3.359,2.844,9.176,5.814,14.215,5.686c3.488,0,6.72-1.161,8.788-2.454c1.809-1.552,2.324-2.843,2.324-3.877
		c0-0.646-0.129-0.904-0.387-1.294c-0.13-0.387-0.646-0.903-1.681-1.549c-1.81-1.293-5.687-2.715-10.338-3.619h-0.129
		c-4.008-0.774-7.885-1.809-11.243-3.36c-3.489-1.679-6.591-4.005-8.917-7.494c-1.421-2.326-2.196-5.169-2.196-8.141
		c0-5.945,3.36-10.985,7.624-14.216c4.523-3.101,9.951-4.781,15.896-4.781c8.916,0,15.247,4.265,19.384,7.107
		c3.102,2.068,4.006,6.333,2.066,9.562c-2.066,3.102-6.332,4.007-9.562,1.81c-4.135-2.713-7.754-4.782-11.889-4.782
		c-3.231,0-6.074,1.034-7.755,2.326c-1.68,1.164-2.066,2.327-2.066,2.973c0,0.516,0,0.646,0.258,1.033
		c0.13,0.258,0.517,0.775,1.422,1.292c1.681,1.163,5.04,2.326,9.435,3.102l0.129,0.13h0.13c4.265,0.774,8.271,1.938,12.018,3.747
		c3.489,1.551,6.979,4.006,9.176,7.624c1.552,2.584,2.455,5.557,2.455,8.528c0,6.332-3.488,11.632-8.142,14.99
		c-4.652,3.23-10.468,5.17-16.8,5.17c-10.079-0.129-17.833-4.78-23.002-8.916C406.572,140.872,406.186,136.477,408.511,133.634z"/>
	<path clip-path="url(#SVGID_2_)" fill="#A41E11" d="M163.449,161.624c-9.078,4.731-56.106,24.067-66.118,29.287
		c-10.012,5.221-15.575,5.17-23.484,1.389c-7.909-3.781-57.955-23.996-66.97-28.305c-4.506-2.154-6.875-3.972-6.875-5.688v-17.195
		c0,0,65.153-14.184,75.672-17.956c10.519-3.774,14.168-3.911,23.119-0.631c8.952,3.279,62.474,12.936,71.321,16.176
		c0,0-0.004,15.356-0.004,16.95C170.111,157.351,168.07,159.216,163.449,161.624z"/>
	<path clip-path="url(#SVGID_2_)" fill="#D82C20" d="M163.449,144.424c-9.078,4.729-56.106,24.068-66.118,29.287
		c-10.012,5.221-15.575,5.17-23.484,1.389c-7.91-3.779-57.955-23.998-66.97-28.305c-9.015-4.31-9.204-7.275-0.348-10.742
		c8.855-3.469,58.626-22.996,69.146-26.77c10.519-3.772,14.168-3.91,23.119-0.63c8.952,3.279,55.699,21.886,64.545,25.125
		C172.187,137.021,172.527,139.691,163.449,144.424z"/>
	<path clip-path="url(#SVGID_2_)" fill="#A41E11" d="M163.449,133.584c-9.078,4.731-56.106,24.067-66.118,29.289
		c-10.012,5.219-15.575,5.168-23.484,1.387c-7.91-3.779-57.955-23.996-66.97-28.305c-4.506-2.154-6.875-3.97-6.875-5.687v-17.197
		c0,0,65.153-14.183,75.672-17.957c10.519-3.773,14.168-3.91,23.119-0.631c8.952,3.279,62.474,12.934,71.321,16.175
		c0,0-0.004,15.357-0.004,16.953C170.111,129.311,168.07,131.176,163.449,133.584"/>
	<path clip-path="url(#SVGID_2_)" fill="#D82C20" d="M163.449,116.383c-9.078,4.732-56.106,24.068-66.118,29.29
		c-10.012,5.219-15.575,5.168-23.484,1.387c-7.91-3.779-57.955-23.997-66.97-28.305c-9.015-4.308-9.204-7.274-0.348-10.743
		c8.855-3.467,58.626-22.995,69.146-26.768c10.519-3.773,14.168-3.91,23.119-0.631c8.952,3.279,55.699,21.885,64.545,25.126
		C172.187,108.98,172.527,111.651,163.449,116.383z"/>
	<path clip-path="url(#SVGID_2_)" fill="#A41E11" d="M163.449,104.503c-9.078,4.732-56.106,24.069-66.118,29.291
		c-10.012,5.219-15.575,5.168-23.484,1.387c-7.91-3.779-57.955-23.997-66.97-28.305c-4.506-2.154-6.875-3.97-6.875-5.686V83.993
		c0,0,65.153-14.183,75.672-17.956c10.519-3.774,14.168-3.91,23.119-0.631c8.952,3.279,62.474,12.934,71.321,16.175
		c0,0-0.004,15.357-0.004,16.952C170.111,100.23,168.07,102.096,163.449,104.503z"/>
	<path clip-path="url(#SVGID_2_)" fill="#D82C20" d="M163.449,87.303c-9.078,4.732-56.106,24.069-66.118,29.289
		c-10.012,5.219-15.575,5.168-23.484,1.388c-7.909-3.78-57.955-23.997-66.97-28.305c-9.015-4.308-9.204-7.275-0.348-10.743
		c8.855-3.468,58.626-22.994,69.146-26.768c10.519-3.774,14.168-3.91,23.119-0.63c8.952,3.279,55.699,21.885,64.545,25.126
		C172.187,79.9,172.527,82.572,163.449,87.303z"/>
	<polygon clip-path="url(#SVGID_2_)" fill="#FFFFFF" points="107.349,70.743 92.609,72.273 89.309,80.213 83.979,71.354 
		66.959,69.823 79.659,65.243 75.849,58.213 87.739,62.863 98.949,59.193 95.919,66.463 	"/>
	<polygon clip-path="url(#SVGID_2_)" fill="#FFFFFF" points="88.429,109.264 60.919,97.854 100.339,91.804 	"/>
	<path clip-path="url(#SVGID_2_)" fill="#FFFFFF" d="M50.289,75.156c11.636,0,21.069,3.657,21.069,8.167
		c0,4.511-9.433,8.167-21.069,8.167c-11.636,0-21.069-3.656-21.069-8.167C29.22,78.813,38.652,75.156,50.289,75.156"/>
	<polygon clip-path="url(#SVGID_2_)" fill="#7A0C00" points="124.769,72.913 148.099,82.133 124.789,91.343 	"/>
	<polygon clip-path="url(#SVGID_2_)" fill="#AD2115" points="98.959,83.124 124.769,72.914 124.789,91.343 122.259,92.333 	"/>
</g>
</svg>
