<?xml version="1.0" encoding="utf-8"?>
<!-- Generator: Adobe Illustrator 16.0.0, SVG Export Plug-In . SVG Version: 6.00 Build 0)  -->
<!DOCTYPE svg PUBLIC "-//W3C//DTD SVG 1.1//EN" "http://www.w3.org/Graphics/SVG/1.1/DTD/svg11.dtd">
<svg version="1.1"
	 id="svg2277" inkscape:version="0.45.1" sodipodi:docname="twistedlogo-cleanedup.svg" xmlns:svg="http://www.w3.org/2000/svg" xmlns:rdf="http://www.w3.org/1999/02/22-rdf-syntax-ns#" xmlns:cc="http://web.resource.org/cc/" xmlns:dc="http://purl.org/dc/elements/1.1/" sodipodi:version="0.32" sodipodi:docbase="/home/glyph/Network/legion/home/glyph/Archive/Pictures/Logos/Twisted" inkscape:output_extension="org.inkscape.output.svg.inkscape" xmlns:inkscape="http://www.inkscape.org/namespaces/inkscape" xmlns:sodipodi="http://sodipodi.sourceforge.net/DTD/sodipodi-0.dtd"
	 xmlns="http://www.w3.org/2000/svg" xmlns:xlink="http://www.w3.org/1999/xlink" x="0px" y="0px" width="532px" height="174.545px"
	 viewBox="-188.208 0 532 174.545" enable-background="new -188.208 0 532 174.545" xml:space="preserve">
<sodipodi:namedview  inkscape:window-y="49" inkscape:window-width="1920" inkscape:pageshadow="2" inkscape:current-layer="svg2277" inkscape:window-x="0" inkscape:window-height="1123" inkscape:pageopacity="0.0" id="base" objecttolerance="10.0" guidetolerance="10.0" bordercolor="#666666" inkscape:zoom="4.193761" inkscape:cx="102.865" pagecolor="#ffffff" borderopacity="1.0" gridtolerance="10.0" inkscape:cy="128.16658">
	</sodipodi:namedview>
<path id="path2280" d="M81.675,0l-43.35,32l29.4,21.675l2.7,1.95l-0.05,0.025L73.3,57.8l34.725-25.7L81.05,12.2L54.5,31.875
	l18.8,13.85L92.2,31.65l-10.85-8v-2.225l0.05-0.075l12.9,9.55l1,0.75l-1,0.75L73.9,47.625l-0.55,0.4l-0.575-0.4l-20.4-15
	l-1.025-0.75l1-0.75l28.125-20.85l0.55-0.4l0.575,0.4l28.525,21.075l1.024,0.75l-1,0.75L73.9,59.725l-0.55,0.4l-0.575-0.4l-4-2.95
	l-2.9,2l-4.025,3.05l11.025,8.325l52.024-38.55L81.675,0z"/>
<path id="path2302" fill="#FFFFFF" d="M71.519,35.4l0.094-1.969L67.3,31.369v0.938L71.519,35.4L71.519,35.4z"/>
<path id="path2300" fill="#FFFFFF" d="M75.409,35.4l-0.094-1.969l4.312-2.062v0.938L75.409,35.4z"/>
<path id="path2282" sodipodi:nodetypes="cccccccccccccccccccccccccccc" opacity="0.75" enable-background="new    " d="
	M115.476,40.95l-8.201,6.075l17.875,13.925l0.976,0.75l-0.976,0.7l-52.299,38.75l-0.575,0.451l-0.55-0.451L59.4,92l-9.5,6.976
	L71.85,115.3l71.9-53.225L115.476,40.95z M48.8,42.05l-0.05,0.025l-27.075,19.6l6.775,5.05L72.275,99.25l50.75-37.6l-17.299-13.475
	L73.375,72.1L72.8,72.525L72.25,72.1l-12.6-9.475l-1-0.75l1-0.75l7.425-5.6L48.8,42.05z"/>
<path id="path2284" sodipodi:nodetypes="cccccccccccccccccccccc" opacity="0.5" enable-background="new    " d="M34.675,73.675
	L0,99.175l68.875,50.775l69.024-51.1l-20.25-15.076L72.45,117.226l-0.575,0.399l-0.575-0.399l-23.525-17.5l-1.025-0.75l1.025-0.775
	l10-7.4L34.675,73.675z M130.274,74.45l-11.049,8.175l20.799,15.476l1.025,0.75l-1.025,0.75l-69.549,51.524L82.5,160l82.075-60.425
	L130.274,74.45z"/>
</svg>
