<?xml version="1.0" encoding="UTF-8"?>
<svg width="1391px" height="294px" viewBox="0 0 1391 294" version="1.1" xmlns="http://www.w3.org/2000/svg" xmlns:xlink="http://www.w3.org/1999/xlink">
    <!-- Generator: Sketch 46.1 (44463) - http://www.bohemiancoding.com/sketch -->
    <title>Backgraund</title>
    <desc>Created with Sketch.</desc>
    <defs></defs>
    <g id="index" stroke="none" stroke-width="1" fill="none" fill-rule="evenodd">
        <g id="Desktop-index" transform="translate(-7.000000, -1266.000000)">
            <g id="Approach" transform="translate(-10.000000, 1200.000000)">
                <g id="Backgraund">
                    <g id="PaperPlane" transform="translate(0.000000, 35.000000)">
                        <g id="background" transform="translate(13.000000, 0.000000)"></g>
                        <g id="objects" transform="translate(0.000000, 33.000000)" stroke="#6F7B89" stroke-width="3.6653" stroke-dasharray="9.163399999999999">
                            <path d="M0,223.665607 C84.3876203,236.915212 211.315652,233.020674 262.334211,195.005547 C282.924593,179.661835 283.764129,146.523224 262.968044,129.646059 C242.529849,113.061735 197.780219,116.885357 191.115772,148.74331 C183.148538,186.824348 254.198902,232.546788 326.261059,244.382245 C367.909254,251.224384 413.384698,248.307652 441.208137,232.035359 C485.606567,206.064265 456.448565,180.234169 439.815042,151.417259 C419.134351,115.592184 435.556318,43.5365606 513.567978,15.6457298 C568.320967,-3.92790999 585.715425,-4.00466609 634.306519,12.1191208 C699.827985,33.8611204 716.586101,89.9831785 726.05597,123.085915 C740.129075,172.286575 687.093623,219.557487 746.822789,267.416584 C772.575818,288.057301 815.529308,295.267368 862.65205,286.512167 C905.522757,278.546219 917.59151,259.13944 933.055202,241.014989 C953.936578,216.543142 971.264141,191.272864 985.386581,165.71642 C998.939574,141.197852 982.087805,90.5847127 925.250189,90.585547 C910.658646,90.585547 906.751959,93.6382706 898.159254,99.3807949 C891.68295,103.710006 888.147532,110.546305 887.262841,116.422318 C884.49003,134.877154 899.562383,157.082193 917.00534,164.607628 C949.69207,178.710727 1002.87887,187.116355 1045.69188,174.890443 C1102.79708,158.578103 1159.67316,96.3948157 1165.70796,64.4300716 C1167.66297,54.1297367 1168.12538,38.2028459 1198.15553,36.9071696 C1220.20507,35.9585643 1237.96578,47.0856959 1244.12182,55.5972799 C1257.94491,74.7362466 1267.38969,106.655938 1329.51036,91.2046016 C1345.28846,87.2791945 1357.41324,80.9418105 1368.68092,74.5410192 C1382.02571,66.9621886 1395.95666,58.2904179 1413.49494,52.6646963" id="Shape"></path>
                        </g>
                    </g>
                </g>
            </g>
        </g>
    </g>
</svg>