<?xml version="1.0" encoding="UTF-8" standalone="no"?>
<svg width="47px" height="30px" viewBox="0 0 47 30" version="1.1" xmlns="http://www.w3.org/2000/svg" xmlns:xlink="http://www.w3.org/1999/xlink">
    <!-- Generator: Sketch 46.2 (44496) - http://www.bohemiancoding.com/sketch -->
    <title>Group</title>
    <desc>Created with Sketch.</desc>
    <defs></defs>
    <g id="Page-1" stroke="none" stroke-width="1" fill="none" fill-rule="evenodd">
        <g id="logo-webdev" fill-rule="nonzero" fill="#000000">
            <g id="mImIJv.tif">
                <g id="Group">
                    <path d="M6.7770707,0.134746854 L39.7180246,0.134746854 C41.7097201,4.76542732 44.0812926,10.3901102 46.1191406,15.0036527 C44.3369109,19.103056 42.5546812,22.9591001 40.7866527,27.0653586 L39.6896229,29.8725586 L6.72381683,29.8725586 C4.8599312,25.5503617 3.03154815,21.2898614 1.18186355,17.0362164 L0.322701031,15.0036527 C0.592520665,14.5169343 0.961747534,13.5846285 1.18186355,13.0773445 C3.05995022,8.76885795 4.91673533,4.4500886 6.7770707,0.134746854 Z M23.2436394,10.8054786 C23.4116256,10.8054786 23.2343069,10.8054786 23.3976267,10.8054786 C24.6668558,15.5897188 26.0807396,20.3927206 27.3359698,25.1347469 L30.9523394,25.1347469 C32.7721899,18.483715 34.5733751,11.8936587 36.4072245,5.18634155 L32.8281852,5.18634155 C31.6102853,10.1300564 30.4297156,14.9330584 29.1184901,20.2707694 C28.0592437,16.2369983 27.1539848,12.7848407 26.2487258,9.34675436 L20.4625346,9.34675436 C19.5246116,12.7754599 18.4280351,16.8373735 17.5181099,20.1816512 C16.384203,15.4349345 15.0263146,9.90022528 13.8924077,5.13474685 L10.322701,5.13474685 C12.0818899,11.8983491 13.8037484,18.5071672 15.5302732,25.1300565 L19.2306358,25.1300565 C20.5698591,20.1675799 21.9790767,15.4959101 23.2436394,10.8054786 Z" id="Shape"></path>
                </g>
            </g>
        </g>
    </g>
</svg>