<?xml version="1.0" encoding="utf-8"?>
<!-- Generator: Adobe Illustrator 16.0.0, SVG Export Plug-In . SVG Version: 6.00 Build 0)  -->
<!DOCTYPE svg PUBLIC "-//W3C//DTD SVG 1.1//EN" "http://www.w3.org/Graphics/SVG/1.1/DTD/svg11.dtd">
<svg version="1.1" id="Слой_1" xmlns="http://www.w3.org/2000/svg" xmlns:xlink="http://www.w3.org/1999/xlink" x="0px" y="0px"
	 width="31.546px" height="11.853px" viewBox="55.728 15.049 31.546 11.853" enable-background="new 55.728 15.049 31.546 11.853"
	 xml:space="preserve">
<g id="mImIJv.tif">
	<g>
		<g>
			<path d="M57.544,15.049c9.308,0,18.618,0,27.926,0c0.561,1.351,1.229,2.992,1.803,4.338l0,0
				c-0.502,1.196-1.004,2.321-1.502,3.519l-0.309,0.819c-9.333,0-18.627,0-27.933,0c-0.525-1.261-1.04-2.504-1.561-3.745
				l-0.242-0.593l0,0c0.076-0.142,0.18-0.414,0.242-0.562C56.497,17.568,57.02,16.308,57.544,15.049z M62.793,21.534
				c0.287-1.057,0.589-2.053,0.86-3.053c0.036,0-0.002,0,0.033,0c0.272,1.02,0.575,2.044,0.844,3.055h0.775
				c0.39-1.418,0.776-2.823,1.169-4.253h-0.767c-0.261,1.054-0.514,2.078-0.795,3.216c-0.227-0.86-0.421-1.596-0.615-2.329h-1.24
				c-0.201,0.731-0.436,1.597-0.631,2.31l0,0c-0.243-1.012-0.534-2.192-0.777-3.208h-0.765c0.377,1.442,0.746,2.851,1.116,4.263
				H62.793z M81.047,19.224c0.529-0.291,0.65-0.835,0.476-1.3c-0.193-0.514-0.632-0.639-1.12-0.677c-0.033-0.002-0.066,0-0.1,0
				c-0.582,0-1.164-0.002-1.746,0.002l-0.326,0.006l-0.01,4.301c0.706,0,1.504,0.008,2.219-0.006
				c0.178-0.003,0.361-0.056,0.533-0.113c0.578-0.191,0.951-0.86,0.736-1.526C81.604,19.591,81.396,19.371,81.047,19.224z
				 M70.723,19.62c0.774,0,1.498,0,2.217,0c0-0.198,0-0.358,0-0.576c-0.491,0-0.964,0-1.435,0c0-0.428,0-0.798,0-1.212
				c0.779,0,1.521,0,2.266,0c0-0.207,0-0.368,0-0.552c-1.023,0-2.025,0-3.048,0C70.723,18.072,70.723,18.831,70.723,19.62z
				 M73.826,21.531c0-0.199,0-0.371,0-0.545c-1.051,0-2.069,0-3.124,0l-0.001,0.541C71.769,21.527,72.803,21.531,73.826,21.531z"/>
		</g>
		<g>
			<path d="M78.992,17.855c0.417,0,0.798-0.006,1.178,0.002c0.42,0.009,0.596,0.145,0.645,0.476c0.055,0.376-0.085,0.634-0.51,0.708
				c-0.07,0.012-0.196,0.025-0.307,0.027v0.468c0.111,0.004,0.261,0.009,0.354,0.021c0.467,0.062,0.688,0.326,0.648,0.772
				c-0.031,0.358-0.241,0.596-0.602,0.613c-0.46,0.022-0.923,0.006-1.406,0.006C78.992,19.909,78.992,18.917,78.992,17.855z"/>
		</g>
	</g>
</g>
<g>
	<path d="M58.647,26.889v-1.758h0.584c0.139,0,0.26,0.023,0.365,0.069c0.105,0.046,0.192,0.109,0.261,0.188s0.122,0.172,0.156,0.278
		s0.052,0.22,0.052,0.341c0,0.133-0.019,0.254-0.058,0.362s-0.095,0.2-0.167,0.277c-0.073,0.076-0.16,0.136-0.263,0.178
		c-0.104,0.042-0.218,0.063-0.345,0.063H58.647L58.647,26.889z M59.939,26.008c0-0.111-0.016-0.213-0.047-0.306
		c-0.032-0.093-0.077-0.174-0.138-0.241c-0.06-0.068-0.134-0.121-0.221-0.158c-0.087-0.039-0.188-0.058-0.302-0.058h-0.458v1.53
		h0.458c0.115,0,0.217-0.02,0.306-0.059s0.162-0.093,0.221-0.162c0.06-0.069,0.104-0.15,0.135-0.244
		C59.924,26.218,59.939,26.117,59.939,26.008z"/>
	<path d="M64.059,26.775v0.113h-1.171v-1.758h1.148v0.114h-1.022v0.69h0.893v0.109h-0.893v0.729L64.059,26.775L64.059,26.775z"/>
	<path d="M66.818,25.131l0.668,1.6l0.668-1.6h0.133l-0.742,1.758h-0.117l-0.745-1.758H66.818z"/>
	<path d="M72.205,26.775v0.113h-1.171v-1.758h1.148v0.114H71.16v0.69h0.893v0.109H71.16v0.729L72.205,26.775L72.205,26.775z"/>
	<path d="M75.023,26.889v-1.758h0.127v1.644h1.049v0.114H75.023L75.023,26.889z"/>
	<path d="M79.638,26.901c-0.122,0-0.233-0.025-0.335-0.077c-0.1-0.051-0.187-0.117-0.26-0.2c-0.072-0.083-0.129-0.177-0.168-0.285
		c-0.039-0.106-0.059-0.217-0.059-0.329c0-0.117,0.021-0.229,0.062-0.336c0.042-0.107,0.1-0.203,0.174-0.285
		c0.072-0.083,0.16-0.148,0.261-0.197s0.209-0.072,0.326-0.072c0.122,0,0.233,0.025,0.335,0.078
		c0.102,0.051,0.188,0.119,0.261,0.203c0.071,0.084,0.127,0.18,0.167,0.286c0.039,0.106,0.059,0.214,0.059,0.323
		c0,0.119-0.021,0.232-0.062,0.34c-0.043,0.107-0.1,0.201-0.174,0.283c-0.073,0.082-0.16,0.147-0.26,0.195
		C79.863,26.877,79.755,26.901,79.638,26.901z M78.941,26.011c0,0.101,0.018,0.197,0.051,0.29c0.034,0.094,0.082,0.176,0.145,0.248
		s0.135,0.129,0.221,0.172s0.181,0.064,0.283,0.064c0.105,0,0.201-0.023,0.285-0.066c0.085-0.045,0.158-0.104,0.219-0.178
		c0.061-0.073,0.106-0.156,0.139-0.248c0.033-0.094,0.051-0.188,0.051-0.283c0-0.101-0.018-0.197-0.053-0.291
		c-0.034-0.093-0.082-0.176-0.145-0.247s-0.135-0.13-0.219-0.172c-0.084-0.043-0.177-0.063-0.277-0.063
		c-0.105,0-0.201,0.021-0.287,0.066c-0.086,0.044-0.16,0.104-0.221,0.177s-0.107,0.156-0.141,0.249
		C78.959,25.82,78.941,25.914,78.941,26.011z"/>
	<path d="M83.275,26.889v-1.758h0.724c0.075,0,0.143,0.016,0.205,0.047s0.116,0.074,0.163,0.125c0.045,0.053,0.08,0.111,0.105,0.176
		c0.025,0.065,0.039,0.131,0.039,0.197c0,0.071-0.012,0.14-0.036,0.205c-0.024,0.066-0.058,0.125-0.102,0.176
		s-0.096,0.093-0.157,0.123c-0.061,0.029-0.129,0.045-0.203,0.045h-0.611v0.664H83.275L83.275,26.889z M83.402,26.109h0.606
		c0.058,0,0.11-0.012,0.155-0.036c0.047-0.024,0.086-0.056,0.117-0.097c0.033-0.04,0.058-0.086,0.075-0.139
		c0.018-0.052,0.026-0.105,0.026-0.162c0-0.058-0.01-0.112-0.031-0.164c-0.021-0.053-0.049-0.098-0.084-0.137
		c-0.035-0.041-0.076-0.072-0.123-0.096c-0.047-0.022-0.098-0.034-0.15-0.034h-0.592V26.109L83.402,26.109z"/>
</g>
</svg>
